<svg width="56" height="56" viewBox="0 0 56 56" fill="none" xmlns="http://www.w3.org/2000/svg">
<path fill-rule="evenodd" clip-rule="evenodd" d="M12 0C5.37258 0 0 5.37258 0 12V44C0 50.6274 5.37258 56 12 56H44C50.6274 56 56 50.6274 56 44V12C56 5.37258 50.6274 0 44 0H12ZM33.3439 23.2354C35.616 20.9633 39.1351 20.0067 42.5518 21.0317C45.8489 22.0054 48.3601 24.9096 48.8726 28.3092C49.7781 34.0321 45.3535 38.9863 39.7672 38.9863C37.2901 38.9863 34.9839 38.0296 33.2414 36.3042L32.5239 35.6721C31.7551 34.9888 31.7551 33.7929 32.5239 33.1096C33.1731 32.5288 34.1468 32.5288 34.796 33.1096L35.616 33.8271C36.7776 34.9888 38.2468 35.5867 39.7843 35.5867C43.4231 35.5867 46.2931 32.2213 45.4047 28.4117C44.9093 26.2933 43.1497 24.585 41.0143 24.1579C39.0156 23.765 37.0681 24.3458 35.6843 25.7296L31.0889 29.8125H31.106L28.5264 32.1358L28.5093 32.1188L23.6747 36.3896C22.0176 38.0467 19.6943 39.0033 17.2343 39.0033C12.1435 39.0033 8.00931 34.8692 8.00931 29.8125C8.00931 24.7558 12.1435 20.6217 17.2343 20.6217C19.6943 20.6217 22.0176 21.5783 23.7601 23.3208L24.4776 23.9358C25.2464 24.6192 25.2464 25.815 24.4776 26.4983C23.8285 27.0792 22.8547 27.0792 22.2056 26.4983L21.4026 25.7979C20.241 24.6362 18.7889 24.0383 17.2343 24.0383C13.5956 24.0383 10.7256 27.4037 11.6139 31.2133C12.1093 33.3317 13.8689 35.04 16.0043 35.4671C18.0031 35.86 19.9506 35.2792 21.3343 33.8954L25.9297 29.8125H25.9126L28.5093 27.5233L33.3439 23.2354Z" fill="#FF0032"/>
</svg>
