<svg width="56" height="56" viewBox="0 0 56 56" fill="none" xmlns="http://www.w3.org/2000/svg">
<path fill-rule="evenodd" clip-rule="evenodd" d="M56 12C56 5.37258 50.6274 0 44 0H12C5.37258 0 0 5.37258 0 12V44C0 50.6274 5.37258 56 12 56H44C50.6274 56 56 50.6274 56 44V12ZM19.0512 45.2936V34.2016C19.0512 33.6935 18.6393 33.2816 18.1312 33.2816C17.1192 33.2816 16.2912 32.45 16.2912 31.4336V23.1176C16.2912 21.0848 17.9472 19.4216 19.9712 19.4216H25.4912C27.5152 19.4216 29.1712 21.0848 29.1712 23.1176V31.4336C29.1712 32.45 28.3432 33.2816 27.3312 33.2816C26.8231 33.2816 26.4112 33.6935 26.4112 34.2016V45.2936C26.4112 46.31 25.5832 47.1416 24.5712 47.1416H20.8912C19.8792 47.1416 19.0512 46.31 19.0512 45.2936ZM22.7312 17.5736C24.7736 17.5736 26.4112 15.9288 26.4112 13.8776C26.4112 11.8263 24.7736 10.1816 22.7312 10.1816C20.6888 10.1816 19.0512 11.8263 19.0512 13.8776C19.0512 15.9288 20.6888 17.5736 22.7312 17.5736ZM32.7206 45.8536V38.1216C32.7206 37.7681 32.4341 37.4816 32.0806 37.4816C31.3766 37.4816 30.8006 36.902 30.8006 36.1936V30.3976C30.8006 28.9808 31.9526 27.8216 33.3606 27.8216H37.2006C38.6086 27.8216 39.7606 28.9808 39.7606 30.3976V36.1936C39.7606 36.902 39.1846 37.4816 38.4806 37.4816C38.1272 37.4816 37.8406 37.7681 37.8406 38.1216V45.8536C37.8406 46.562 37.2646 47.1416 36.5606 47.1416H34.0006C33.2966 47.1416 32.7206 46.562 32.7206 45.8536ZM35.2806 26.5336C36.7014 26.5336 37.8406 25.3873 37.8406 23.9576C37.8406 22.5279 36.7014 21.3816 35.2806 21.3816C33.8598 21.3816 32.7206 22.5279 32.7206 23.9576C32.7206 25.3873 33.8598 26.5336 35.2806 26.5336Z" fill="#FF0032"/>
</svg>
