<svg width="57" height="56" viewBox="0 0 57 56" fill="none" xmlns="http://www.w3.org/2000/svg">
<path fill-rule="evenodd" clip-rule="evenodd" d="M8.66675 0C4.24847 0 0.666748 3.58172 0.666748 8V48C0.666748 52.4183 4.24847 56 8.66675 56H48.6667C53.085 56 56.6667 52.4183 56.6667 48V8C56.6667 3.58172 53.085 0 48.6667 0H8.66675ZM24.2742 29.272C25.1827 29.272 25.9192 30.0085 25.9192 30.917V30.9352C25.9192 32.3155 27.0214 33.4298 28.3867 33.4298C29.7521 33.4298 30.8542 32.3155 30.8542 30.9352V30.917C30.8542 30.0085 31.5907 29.272 32.4992 29.272C33.8646 29.272 34.9667 28.1577 34.9667 26.7774C34.9667 25.397 33.8646 24.2827 32.4992 24.2827C31.5907 24.2827 30.8542 23.5462 30.8542 22.6377V22.6196C30.8542 21.2392 29.7521 20.1249 28.3867 20.1249C27.0214 20.1249 25.9192 21.2392 25.9192 22.6196V22.6377C25.9192 23.5462 25.1827 24.2827 24.2742 24.2827C22.9089 24.2827 21.8067 25.397 21.8067 26.7774C21.8067 28.1577 22.9089 29.272 24.2742 29.272ZM17.3652 15.1521L27.2352 11.4101C27.9755 11.1274 28.798 11.1274 29.5382 11.4268L39.4082 15.1688C40.6913 15.6511 41.5467 16.8984 41.5467 18.2788V26.0955C41.5467 33.3973 37.3068 40.2718 31.2376 43.1997C29.4408 44.0665 27.3327 44.0665 25.5359 43.1997C19.4666 40.2718 15.2267 33.3973 15.2267 26.0955V18.2788C15.2267 16.8818 16.0821 15.6511 17.3652 15.1521Z" fill="#FF0032"/>
</svg>
